<svg width="245" height="245" viewBox="0 0 245 245" fill="none" xmlns="http://www.w3.org/2000/svg">
<rect width="245" height="245" rx="75" fill="url(#paint0_linear_2_28)"/>
<path d="M111.463 148.04V96.02H121.561V108.26H122.071V148.04H111.463ZM146.551 148.04V114.074C146.551 110.538 145.735 107.954 144.103 106.322C142.471 104.69 140.125 103.874 137.065 103.874C134.209 103.874 131.625 104.554 129.313 105.914C127.069 107.206 125.301 109.042 124.009 111.422C122.717 113.734 122.071 116.488 122.071 119.684L120.745 107.546C122.445 103.67 124.995 100.61 128.395 98.366C131.863 96.122 135.739 95 140.023 95C145.191 95 149.305 96.496 152.365 99.488C155.493 102.48 157.057 106.424 157.057 111.32V148.04H146.551ZM181.639 148.04V114.074C181.639 110.538 180.789 107.954 179.089 106.322C177.457 104.69 175.111 103.874 172.051 103.874C169.263 103.874 166.713 104.554 164.401 105.914C162.157 107.206 160.355 109.042 158.995 111.422C157.703 113.734 157.057 116.488 157.057 119.684L154.915 107.546C156.683 103.67 159.335 100.61 162.871 98.366C166.475 96.122 170.487 95 174.907 95C180.143 95 184.325 96.53 187.453 99.59C190.581 102.582 192.145 106.594 192.145 111.626V148.04H181.639Z" fill="white"/>
<path d="M77.704 149.06C72.74 149.06 68.32 147.904 64.444 145.592C60.568 143.212 57.508 139.982 55.264 135.902C53.088 131.822 52 127.164 52 121.928C52 116.692 53.088 112.068 55.264 108.056C57.508 103.976 60.568 100.78 64.444 98.468C68.32 96.156 72.706 95 77.602 95C81.75 95 85.456 95.782 88.72 97.346C91.984 98.91 94.67 101.086 96.778 103.874C98.886 106.662 100.246 109.96 100.858 113.768H90.862C90.182 110.708 88.686 108.26 86.374 106.424C84.13 104.588 81.274 103.67 77.806 103.67C74.814 103.67 72.196 104.418 69.952 105.914C67.708 107.41 65.974 109.518 64.75 112.238C63.526 114.958 62.914 118.188 62.914 121.928C62.914 125.6 63.526 128.83 64.75 131.618C65.974 134.406 67.708 136.582 69.952 138.146C72.196 139.642 74.848 140.39 77.908 140.39C81.24 140.39 84.062 139.506 86.374 137.738C88.754 135.902 90.284 133.454 90.964 130.394H100.96C100.28 134.134 98.852 137.398 96.676 140.186C94.568 142.974 91.882 145.15 88.618 146.714C85.354 148.278 81.716 149.06 77.704 149.06Z" fill="white"/>
<defs>
<linearGradient id="paint0_linear_2_28" x1="122.5" y1="0" x2="122.5" y2="245" gradientUnits="userSpaceOnUse">
<stop stop-color="#1B1917"/>
<stop offset="1" stop-color="#81776E"/>
</linearGradient>
</defs>
</svg>
