<svg width="105" height="81" viewBox="0 0 105 81" fill="none" xmlns="http://www.w3.org/2000/svg"><g clip-path="url(#a)"><path d="M39.052 76.081c.01 0 .072.127.083.129 2.153.745 4.267 1.311 6.342 1.683 1.095.189 2.205.331 3.33.426.91.07 1.812.1 2.704.087.03.015.055.03.078.045-.007-.356.243.004.366.004a.086.086 0 0 0 .011-.013c.472.008.942 0 1.41-.01a38.476 38.476 0 0 0 5.447-.568 41.98 41.98 0 0 0 5.32-1.347c.588-.195 1.206-.396 1.78-.618.225-.087.51-.18.733-.273.04-.015.358-.119.396-.136 0 0-.284-.212-.296-.267-.011-.05.375.159.423.14.047-.019-.309-.155-.262-.174l.39.106a40.262 40.262 0 0 0 7.353-4.163c.06-.043-.094-.026-.086-.098.053-.442.282-.05.352-.103.138-.104.336-.28.472-.386 1.078-.883 2.166-1.789 3.236-2.78 1.95-1.872 3.71-3.736 5.222-6.194.072-.113.144-.223.216-.34 1.169-1.907 2.243-3.792 3.088-5.632.402-.905.768-1.83 1.1-2.771.022-.073.047-.145.07-.217h.005c-.032-.994-.129-2.1.525-1.644l-.006-.008a41.119 41.119 0 0 0 1.308-6.735l.041-.012c.144-1.35.22-2.72.22-4.11a38.187 38.187 0 0 0-7.943-23.369l-.077.023c-1.675-2.131-3.534-4.238-5.897-6.215-5.513-4.615-12.359-7.764-20.459-8.588-2.806-.286-5.55-.209-8.253.034-.16.017-.366.015-.364.032.029.27-.42.428-.72.472-.282.042-1.09.023-1.186-.205-.011-.024-.466.105-.722.152-4.049.88-7.997 2.262-11.783 4.449-.002-.025-.002.35-.004.324-.123.07-.123-.167-.244-.095-.06.117-.017.174-.142.11-.019.011-.14.257-.157.269.019.05-.34.15-.163-.12-3.989 2.555-7.894 5.527-11.414 10.41-.38.576-.762 1.152-1.14 1.728-2.983 5.03-4.7 9.797-5.48 14.367l-.053.016a38.714 38.714 0 0 0-.502 6.205 38.188 38.188 0 0 0 8.096 23.568l.019-.006a39.252 39.252 0 0 0 5.73 5.834c-.016.023.009.006-.006.027.022.019.125-.097.147-.078.037.03-.047.23-.01.26.031.026.552.164.585.189.064.053-.142.025-.078.078.051.041.559.166.61.206.05.04-.635-.068-.585-.03.949.752 1.99 1.491 3.01 2.15a41.379 41.379 0 0 0 4.347 2.433c.704.337 1.485.692 2.213.984.036.015-.057-.114-.02-.099.04.015.135.127.167.099.025-.023-.007-.2.133.096.027.055.063-.064.12-.042.164.065.38.235.545.296.023.01.004-.08.027-.07.045.017.134.129.18.146.053.019.055-.091.108-.072l-.006.011z" fill="#fff"/><path d="M21.831 63.67l-.019.007-1.622.46c.038.045.116.14.156.186.547.166 1.73.178 1.767.989-.206.144-.454.076-.63.367 1.011 1.54 2.557 2.967 4.202 4.375.616-.138 1.33.216 1.83-.487l.046-.062a39.345 39.345 0 0 1-5.73-5.834zM19.75 19.519c.381-.576.762-1.152 1.141-1.728 3.52-4.881 7.426-7.856 11.414-10.41.089-.072.055-.12.036-.17-.01-.023-.015-.046-.006-.072.023.017.042.03.06.04.126.064.188-.029.25-.146.031-.063.062-.131.101-.188.042-.195-.316.072-.3-.197.12-.135.266-.142.37-.366-.269-.17-.52-.483-.392-.65.584.315.552.758.588 1.186.002.025.003.052.007.076 3.786-2.186 7.734-3.567 11.783-4.449.241-.053.482-.104.722-.151-.074-.123.067-.292.17-.453.474-.402 1.227-.411 1.738.186.121-.012.243-.021.364-.032 2.704-.243 5.445-.306 8.253-.035 1.34.13 2.695.334 4.068.63 4.37.884 8.919 2.663 13.769 5.93.94.663 1.81 1.341 2.624 2.03 2.35 1.99 4.222 4.082 5.896 6.214l.078-.023 1.609-.464c-1.637-2.225-3.596-4.379-5.92-6.46-.26-.172-.522-.342-.784-.515-.227.334-.056.701-.379.969-.564-.201-.73-.7-.896-1.069-.098-.095-.31 0-.27-.178.092-.197.128.13.23-.023.004-.328.57-.239.522-.396-.281-.386-.827-.716-1.336-1.053-.392.081-.758.305-1.203.121-.086-.13-.173-.26-.112-.42.186-.205.445-.035.63-.238-.395-.236-.814-.589-1.195-.742l-.633-.417C64.708 1.076 57.412-.03 50.367.13c-7.012.305-13.645 2.5-19.94 6.363-.246.295-.517.458-.792.61-.093.132-.034.233-.159.373-.104.045-.258-.152-.34-.008-1.143.734-2.237 1.704-3.349 2.583-.115.11.114.15.051.25-.14.042-.309-.06-.42.114-.866.807-1.74 1.568-2.566 2.575.264.363.752.132 1.004.443-.24.273-.606-.072-.922-.173-.381.143-.713.527-1.073.774-1.385 1.66-2.916 3.618-4.054 5.682.028.299.036.602-.05.924-.236.169-.506.175-.731.389-2.5 4.657-3.84 9.073-4.45 13.336l1.646-.464.053-.015c.78-4.57 2.497-9.337 5.48-14.367h-.004zM91.855 43.76l-1.65.456-.042.011a41.119 41.119 0 0 1-1.307 6.736.026.026 0 0 1 .006.008c.305.354.52.725.544 1.137.195.125.424.244.375.42-.453.17-.965.046-1.444.09h-.006l-.07.215c-.295.91-.667 1.834-1.099 2.772-.847 1.84-1.92 3.725-3.088 5.631-.07.116-.144.228-.216.341-1.596 2.533-3.38 4.49-5.222 6.194-1.07.99-2.158 1.897-3.236 2.78-.157.128-.317.257-.472.386.178.254.402.63.207.874-.383-.184-.237-.476-.457-.692A39.436 39.436 0 0 1 67.31 75.3l.013.007c.172.091.367.298.523.301-.042-.053-.203-.081-.161-.15.11.061.517.374.415.23-.033-.028-.091-.051-.07-.091l.151.1c.135-.02-.303-.145-.132-.26l.09.061c.137-.02-.272-.151-.233-.24.508.282.554.53.851.818-.282-.153.038.042.051.122-.494-.267-1.027-.56-1.563-.726.197.169.436.33.527.52-.279-.162-.476-.338-.707-.509-.964.377-1.936.724-2.914 1.039a41.658 41.658 0 0 1-5.32 1.347 35.371 35.371 0 0 1-6.857.578.077.077 0 0 0-.012.013c-.066.08-.132.16-.22.138-.045-.049-.083-.098-.145-.144a.383.383 0 0 0-.078-.045 29.51 29.51 0 0 1-2.704-.087 33.115 33.115 0 0 1-3.33-.427c-2.075-.371-4.192-.938-6.342-1.682h-.032c-.093.007-.17.094-.271.062-.163-.354-.622-.324-.908-.468.03.09-.09.349-.208.383-.034-.142.081-.313.089-.462a35.111 35.111 0 0 1-2.225-.984 41.415 41.415 0 0 1-4.346-2.432 35.756 35.756 0 0 1-3.045-2.175c-.155.009-.32-.027-.453.092-.062.144.133.235.002.392-.238.198-.547.06-.754.415.404.161 1.044-.212 1.281.366-.261.254-.623.023-.915.135 2.772 2.207 6.186 4.19 9.07 5.362.132.02.047-.224.18-.142.129.077-.04.218.062.3 7.528 2.958 14.59 3.65 21.291 2.593-.167-.097.1-.353.2-.301.052.075.03.168-.048.272 2.548-.31 5.028-.953 7.451-1.87-.07-.074-.265-.12-.251-.21.384.337.64.055.936-.036-.042-.034-.12-.063-.1-.11.105.091.196.112.272.05-.085-.07-.258-.122-.203-.22.013.075.137.128.222.189.947-.322 1.889-.67 2.783-1.25.116-.427.127-1.126.658-1.391.23.106.468.237.697.328.104.119-.07.293.083.401 1.442-.716 2.87-1.508 4.237-2.596.064-.274.267-.577.398-.867.111.142.108.309.324.432 3.276-2.386 6.404-5.485 9.325-9.582 2.587-3.584 4.013-7.156 5.173-10.534.028-.093-.239-.125-.152-.231.086-.103.218.034.283-.161.496-1.543.788-3.041 1.135-4.552-.048-.13-.264-.223-.235-.37.119-.183.238-.363.36-.547.03-.172-.004-.331-.023-.492.068-.023.174-.055.15-.161.119-.703.166-1.391.227-2.083h-.008zm-23.46 31.603c.186.015.26.277.495.37-.15.035-.343-.14-.516-.209.177-.025.114-.028.02-.16h.001zm.233.37c.087-.042.218.128.324.17-.087.042-.218-.129-.324-.17z" fill="#000"/><path d="M52.114 64.429c13.41 0 24.28-10.871 24.28-24.28 0-13.41-10.87-24.282-24.28-24.282-13.41 0-24.28 10.871-24.28 24.281 0 13.41 10.87 24.28 24.28 24.28z" fill="#A30C33"/><path d="M52.51 3.201c-18.242-.159-33.515 12.91-36.714 30.253l3.31-.936 2.338 1.785.216-.063 5.628-1.63c.35-1.15.792-2.273 1.277-3.383.017-.04.04-.053.083-.045.328-.86.728-1.524 1.209-2.31l.028-.097c.053.01.057-.007.02-.064.424-.578.748-1.184 1.187-1.758.02-.069.09-.055.135-.048.038-.098.068-.2.136-.29l.373-.204c.063-.076-.034-.195-.022-.285.657-.765 1.28-1.54 2.033-2.279.096-.093.13.025.21-.007.082-.035-.062-.135-.017-.178 1.692-1.596 3.596-3.221 6.171-4.504 2.924-1.474 5.663-2.314 8.27-2.696.088.136.035.23.055.346.163-.127.372-.24.493-.378 1.116-.213 2.177-.237 3.225-.213.055.108-.099.157-.074.256.104.121.62-.64.72-.51.385.008.186.518.38.307.69-.064 1.338.021 1.98.122.031.06.086.128.07.176.063-.04-.02-.123-.048-.188.062-.013.107.027.142.11.024-.023-.012-.06-.025-.093.197.038.43-.047.55.264.034-.05-.065-.135-.082-.197a20.88 20.88 0 0 1 4.854 1.178c-.076.036-.115.083-.11.142.042.059.273-.007.207-.114 3.001 1.022 5.835 2.623 8.467 4.921l11.607-3.367.328-.095C74.407 8.725 64.107 3.302 52.514 3.2l-.004.002z" fill="#000"/><path d="M28.42 20.845h-.013l-.017.191h.016c.034 0 .085.014.115.034.139.097.16.421.053.872-.102.44-.309.917-.538 1.25-.583.847-1.682 1.435-2.717.722a1.67 1.67 0 0 1-.752-1.29c-.034-.49.129-1.027.459-1.504.377-.548 1.252-1.222 1.538-1.1l.023.01c.036.015.068.029.094.048l.006.003.136-.05-.572-1.374-.004-.012-.214.065.004.013s.006.017.012.028c.017.048.043.118.018.154a.709.709 0 0 1-.13.095c-.114.075-.286.189-.489.354-.476.386-.86.796-1.17 1.248-.507.734-.764 1.546-.727 2.287.042.819.434 1.507 1.137 1.992.451.31.936.473 1.433.48.274.007.555-.037.831-.126.707-.23 1.372-.758 1.878-1.491.56-.813.697-1.821.762-2.304.022-.165.038-.283.058-.313l.035-.041a.312.312 0 0 0 .037-.046l.004-.004-.024-.13-1.287-.061h.006zM37.11 15.337c-.099.076-.21.142-.35.097l-2.246-.703c.658-.737.735-1.444.23-2.101-.343-.446-.76-.654-1.236-.622-.432.029-.928.258-1.476.678l-2.772 2.136-.011.007.129.167.011-.008a.426.426 0 0 1 .199-.098.14.14 0 0 1 .129.06l2.836 3.68a.138.138 0 0 1 .027.14.43.43 0 0 1-.146.169l-.012.007.13.167 1.422-1.097-.129-.167-.011.008c-.193.148-.275.125-.337.044l-1.103-1.433 1.142-.88 1.86.575.026.008c.15.045.238.072.278.123.015.019.014.051-.006.089a.361.361 0 0 1-.1.117l-.011.008.129.167 1.536-1.184-.129-.167-.011.007.002.006zm-3.827-.591l-1.391 1.072-.908-1.178 1.391-1.073c.36-.278.67-.424.919-.437.212-.012.387.074.529.26.111.145.454.588-.54 1.354v.002zM44.89 12.478l.003.013.2-.074-.501-1.356-.004-.014-.199.074.006.014a.22.22 0 0 1-.023.204.4.4 0 0 1-.203.148l-3.194 1.177-.48-1.3 1.869-.69c.248-.09.411-.089.513.19l.004.013.2-.074-.558-1.51-.004-.013-.199.074.006.013c.05.132.047.227-.006.297-.055.074-.16.12-.269.16l-1.868.69-.43-1.166 3.098-1.143c.129-.047.225-.064.295-.049.063.013.105.051.13.118l.003.013.199-.074-.472-1.28-.004-.014-.199.074.006.013a.191.191 0 0 1-.019.184c-.043.062-.129.117-.252.165L38.16 8.969l-.014.004.074.199.013-.006a.178.178 0 0 1 .126 0 .17.17 0 0 1 .094.102l1.607 4.36c.04.11-.025.191-.1.22l-.014.004.074.198 4.487-1.654c.212-.077.324-.085.386.084l-.004-.002zM53.198 10.668c.483-.494.716-1.212.672-2.078-.041-.866-.344-1.557-.873-2-.487-.41-1.156-.607-1.929-.57l-3.393.168h-.014l.01.212h.013a.27.27 0 0 1 .165.034c.04.026.063.068.065.125l.227 4.64a.154.154 0 0 1-.053.13.276.276 0 0 1-.161.052h-.014l.01.212 3.407-.167c.775-.037 1.419-.299 1.864-.754l.004-.004zm-3.888-.054l-.176-3.59 1.57-.079c.694-.034 1.14.06 1.442.3.33.26.498.706.533 1.404.034.697-.091 1.157-.393 1.45-.278.268-.712.403-1.405.437l-1.571.078zM58.55 11.697l.902-4.556c.012-.055.038-.093.086-.112a.329.329 0 0 1 .195-.006h.013l.042-.205-1.68-.331h-.012l-.042.204h.013c.165.037.237.109.214.22l-.902 4.557c-.011.055-.037.093-.085.112a.327.327 0 0 1-.195.005h-.013l-.042.205 1.679.332h.013l.042-.205h-.014c-.164-.036-.236-.108-.214-.22zM63.469 13.43l-.013-.007-.087.194 1.447.653.013.006.088-.193-.014-.006a.261.261 0 0 1-.123-.102c-.023-.042-.023-.09 0-.14l1.671-3.699 1.526.69c.06.026.108.068.134.117.032.059.032.125 0 .2l-.006.012.194.088.594-1.317.006-.014-.193-.087-.006.014c-.07.155-.214.157-.326.108l-4.14-1.87a.276.276 0 0 1-.134-.118.216.216 0 0 1 0-.199l.006-.013-.194-.087-.6 1.33.193.087.006-.013c.032-.072.083-.118.147-.131a.281.281 0 0 1 .177.025l1.525.69-1.671 3.698a.164.164 0 0 1-.226.085l.006-.002z" fill="#fff"/><path d="M29.643 27.34c.04.059.066.172.133.142-.044-.047-.08-.125-.133-.142zM28.716 29.034l.114.206c.082-.045-.064-.22-.114-.206zM77.082 48.614c-.119.185-.587-.464-.485-.214-.015.174-.047.344.033.547-.506 1.463-1.141 2.89-1.997 4.252-.192.062-.338-.038-.537.053-.032.256.262.197.372.333-.152.118-.165.277-.29.402-.157-.02-.309-.05-.476-.034-.096.104-.08.242-.058.383.072.07.151.117.255.074-1.73 2.667-4.026 5.17-7.304 7.389-.195.055-.352-.025-.538 0a1.684 1.684 0 0 0-.307.519c-1.277.843-2.75 1.506-4.049 2.04-.282.033-.589.154-.85.118-.152-.155-.11-.256-.332-.17.051.255.256.062.297.352-.778.328-1.512.5-2.254.703-.118.066-.184-.044-.277-.063-.066.04.053.131-.047.162-.906.166-1.829.394-2.708.468-.09.058-.121-.103-.195-.108-.116.041-.112.117-.205.166-.204.004-.409.015-.64.11-4.792.305-9.275-.455-13.409-2.423-1.982-.997-4.019-2.28-5.841-3.824l-12.007 3.426c6.713 8.378 17.06 13.833 28.633 13.934 19.062.166 34.877-14.097 37.066-32.603l-12.054 3.41c.055.145.345.63.206.594l-.002.004z" fill="#000"/><path d="M34.834 63.828l-1.591 1.086-1.524-1.173.542 1.847-1.597 1.094 1.933.055.545 1.853.648-1.825 1.927.053-1.527-1.175.644-1.815zM44.795 68.457l-.06.203.012.003c.196.06.266.135.233.247l-.873 2.942c-.117.394-.328.63-.646.72-.294.082-.68.047-1.216-.112-.537-.159-.88-.339-1.08-.568-.218-.248-.268-.56-.15-.955l.873-2.942c.03-.105.123-.142.252-.105l.014.004.06-.203-1.622-.48-.013-.005-.06.203.013.004c.089.026.153.06.187.102.034.04.042.085.025.14l-.858 2.894c-.226.761-.16 1.326.206 1.773.33.402.92.72 1.857.997.621.183 1.123.27 1.537.261.21-.004.396-.034.564-.087.553-.176.915-.612 1.14-1.374l.86-2.893a.144.144 0 0 1 .092-.104.292.292 0 0 1 .178.007l.013.004.06-.202-1.581-.47-.013-.004h-.004zM55.655 74.35a.181.181 0 0 1-.136-.046.167.167 0 0 1-.05-.118l-.168-4.642c-.004-.117.085-.174.174-.176h.014l-.008-.212-1.558.057h-.013l.008.212h.024c.078 0 .14.011.18.038a.144.144 0 0 1 .067.125l.117 3.217-3.022-2.916c-.15-.138-.208-.214-.21-.269 0-.03.006-.055.02-.072a.062.062 0 0 1 .044-.019h.014l-.008-.212-1.762.065h-.013l.007.212h.017c.048 0 .093.013.125.038a.161.161 0 0 1 .059.125l.169 4.642c.003.117-.086.174-.175.176h-.013l.008.212 1.527-.055h.013l-.008-.212h-.013-.007a.271.271 0 0 1-.158-.038.15.15 0 0 1-.062-.125l-.123-3.361 3.213 3.113c.114.106.167.174.169.22.002.058-.06.081-.116.083h-.013l.008.212 1.669-.06h.013l-.008-.213h-.013l-.002-.002zM61.779 73.021a.331.331 0 0 1-.195.008c-.048-.017-.078-.051-.093-.106l-1.228-4.48a.142.142 0 0 1 .027-.138c.032-.04.09-.07.172-.093l.013-.003-.056-.205-1.65.453-.014.004.057.204.013-.004a.333.333 0 0 1 .195-.007c.048.017.078.051.093.106l1.228 4.48c.015.054.005.1-.027.137-.032.04-.09.07-.172.093l-.013.004.056.205 1.65-.453.014-.004-.057-.205-.013.004zM68.488 64.918c-.739-.076-1.565.11-2.264.507-.701.398-1.283 1.012-1.597 1.685-.26.557-.459 1.417.075 2.359.535.941 1.376 1.212 1.986 1.275.13.013.265.019.4.015a4.006 4.006 0 0 0 1.864-.523c.701-.398 1.283-1.012 1.597-1.684.26-.557.459-1.418-.075-2.36-.535-.94-1.376-1.212-1.986-1.274zm-.015 4.475a2.525 2.525 0 0 1-1.512.318c-.39-.05-.927-.23-1.258-.813-.332-.583-.212-1.136-.053-1.496.2-.457.583-.872 1.05-1.135.369-.21.793-.326 1.199-.336.106-.002.21.004.312.015.39.05.927.23 1.258.813.556.978-.07 2.107-.996 2.632v.002zM79.43 60.872l-.01.01c-.06.066-.16.098-.248.019l-3.442-3.119a.164.164 0 0 1-.06-.113.194.194 0 0 1 .054-.135l.01-.01-.146-.132-.01-.01-1.046 1.156-.01.01.146.132.01.01.01-.01c.111-.125.212-.148.295-.072l2.385 2.162-4.196.129c-.205.01-.3 0-.34-.038-.049-.044-.041-.087-.018-.11l.01-.01-.147-.132-.01-.01-1.183 1.308-.01.01.146.132.01.01.009-.01a.184.184 0 0 1 .117-.064.16.16 0 0 1 .131.045l3.443 3.119c.04.036.06.08.058.125 0 .041-.02.085-.053.123l-.009.01.146.132.01.01 1.024-1.134.01-.009-.146-.133-.01-.01-.009.01a.272.272 0 0 1-.142.093.148.148 0 0 1-.133-.041l-2.493-2.259 4.473-.127c.156-.01.24.002.275.034a.07.07 0 0 1 .02.063.156.156 0 0 1-.04.077l-.01.01.146.133.01.009 1.12-1.24.01-.009-.146-.132-.01-.01-.001-.002zM84.12 52.566l-1.935-.1-.5-1.861-.69 1.798-1.923-.098 1.497 1.214-.69 1.796 1.616-1.047L83 55.486l-.502-1.868 1.621-1.052z" fill="#fff"/><path d="M98.951 32.702l5.381-7.393-.074-8.604-5.746-4.602-33.27 9.617-.655-2.224-19.614 5.69-.798 2.514-22.721 6.588-2.338-1.785-13.019 3.68-5.409 7.34.028 19.159 6.446 5.161 87.321-24.81-1.593-5.369.01-3.234 6.051-1.728z" fill="#A30C33"/><path d="M18.345 35.315l-8.449 2.491v.004l-2.222.654-4.849 6.495.063 16.5 4.545 3.627 1.891-.546.004.004 8.19-2.366.93-.27 4.52-6.057-.055-16.895-4.568-3.641zM14.699 56.7l-2.287 1.87-.807-.267-.88-1.076-.014-12.454.873-1.698 1.086-1.178.669-.282 1.43.27.811.988.014 12.315-.897 1.512h.002zM41.634 31.09l-.903.261-5.628 1.626.81 2.652.022 6.501-4.532-8.085-.966.28-.927.268L24 36.184l.81 2.653.032 18.48-.658 3.078 2.014-.582v.002l-.002.004 5.505-1.59-.74-2.56-.028-9.24 5.783 10.343.002.004 1.892-.548.002.004 3.488-1.008-.037-21.484.54-2.93-.969.28zM58.87 29.178l.311-.445.508-.152.02-.002 5.281.64-.354-1.292-.03-.066 1.446.12-.385-1.242-1.378-4.448-.041.013-1.851.534h-.002l-15.96 4.61-1.815 6.726-.27.983 2.144-1.487-.02.072 3.522-2.033 1.525-.604.193.136.029 17.854-1.186 3.746-.008.019 1.897-.548-.002.004 7.366-2.128-.913-3.156-.026-17.854z" fill="#fff"/><path d="M90.637 32.351l6.815-1.968 4.466-6.145-.064-6.222-3.894-3.035-.964.278-12.25 3.54-1.964.566.809 2.63.034 18.62-.459 2.48-1.084-2.037-5.13-17.76.483-2.4-8.761 2.537-1.967.568.6 2.01-4.439 20.414-1.413 3.369.114-.042 1.896-.547v.004l6.304-1.821-.324-2.68.54-2.93.356-.45 4.316-1.246.313.252.693 2.49-.34 2.95 1.966-.567v.008l6.076-1.751 1.616-.47V43l6.24-1.802-.925-3.2.02-5.207.325-.44h-.004zM73.28 36.32l-1.878.542-.313-.254 1.092-5.92 1.493 5.17-.394.464v-.002zm16.986-14.608l.324-.44 2.167-.612 1.342.356.769.921.004 2.425-.66 1.268-1.92 1.711-.247.08-1.448.401-.295-.225-.036-5.885z" fill="#fff"/><path d="M31.439 43.396l-.654-1.543.142 1.689.002.95.002.315 6.565 11.742.002.004 1.116-.325-.002-.001-7.173-12.831zM53.23 30.426l-.9.357-.108.041.273.194.026 17.853-1.186 3.746-.005.02 1.117-.325.006-.017 1.186-3.746-.028-17.854-.381-.269zM65.508 27.933l-2.78-.23-1.713.467 4.682.441-.19-.678zM73.166 26.99l-.117-1.005-.135.73-.341 1.849-.063.343 1.943 6.724-.324.44 1.117-.322.324-.44-2.404-8.32zM76.548 39.534l-.964.279-.152.043.315.254.74 2.562-.316 2.859v.004l1.118-.322v-.004l.314-2.861-.738-2.56-.317-.254zM96.765 21.39l-.804-.98-1.121-.36-1.101.33-.002.003 1.106.348.804.984.003 2.609-.612 1.244-1.62 1.469-.043.013.193-.055 1.31-.377 1.095-1.01.795-1.444-.003-2.773zM16.456 41.2l-1.255-.398-.848.36-.107.045 1.048.315.927 1.076.01 12.732-.944 1.573-1.656 1.455 1.642-.475 1.2-1.107.873-1.582-.01-12.918-.88-1.076zM8.633 38.18l-5.027 6.764.064 16.292 4.544 3.627 1.116-.323-4.546-3.626-.062-15.991 5.174-7.117-1.263.373zM25.965 35.614h.002l-1.118.322.741 2.562.032 18.712-.54 2.925v.004l1.116-.322.002-.004.538-2.925-.032-18.712-.74-2.562zM68.672 23.433h.002l-1.12.324.602 2.079-4.532 20.551-1.275 3.138-.002.006 1.118-.324.002-.004 1.273-3.138 4.532-20.551-.6-2.079v-.002zM84.746 18.797h.002v-.002l-1.118.324.74 2.56.033 18.712-.54 2.925-.001.004 1.118-.322v-.004l.54-2.925-.035-18.713-.739-2.56zM36.721 43.525l.15.265.474.845.638 1.375-.142-1.692-.032-9.352-.739-2.56h.002l-1.118.322.739 2.562.029 8.235zM45.388 33.994l-.163.61 1.265-.873.008-.03.008-.029 1.828-6.773-1.118.323-1.828 6.772z" fill="#231F20"/></g><defs><clipPath id="a"><path fill="#fff" transform="translate(.688 .115)" d="M0 0h103.644v80H0z"/></clipPath></defs></svg>