<?xml version="1.0" encoding="UTF-8"?>
<svg width="383px" height="99px" viewBox="0 0 383 99" version="1.1" xmlns="http://www.w3.org/2000/svg" xmlns:xlink="http://www.w3.org/1999/xlink">
    <title>LoneStar_Horizontal</title>
    <g id="LoneStar_Horizontal" stroke="none" stroke-width="1" fill="none" fill-rule="evenodd">
        <g id="Group">
            <path d="M196.541,44.376 C195.584,46.162 194.135,48.27 192.203,50.697 C190.272,53.132 188.321,55.001 186.354,56.315 C184.385,57.626 182.905,58.283 181.909,58.283 C180.912,58.283 180.412,57.603 180.412,56.242 C180.461,53.497 182.039,50.128 185.151,46.143 C186.682,44.149 188.418,42.426 190.364,40.966 C192.309,39.508 194.166,38.487 195.94,37.907 C195.94,39.145 196.367,39.765 197.213,39.765 L197.475,39.765 C197.811,39.765 197.981,40.087 197.981,40.729 C197.981,41.375 197.502,42.589 196.541,44.376 Z M125.26,58.137 C124.508,58.137 123.856,58.026 123.311,57.807 C122.766,57.59 122.489,57.335 122.489,57.045 C122.489,56.289 124.078,55.912 127.262,55.912 C128.6,55.912 130.201,56.032 132.075,56.277 C129.889,57.518 127.616,58.137 125.26,58.137 Z M203.119,44.156 C204.069,42.005 204.545,40.255 204.545,38.91 C204.545,37.558 204.16,36.557 203.395,35.9 C202.631,35.246 201.883,34.918 201.153,34.918 C200.422,34.918 199.889,34.942 199.547,34.99 L199.547,34.771 C199.547,34.601 199.43,34.405 199.188,34.187 C198.508,33.532 197.496,33.202 196.159,33.202 C193.168,33.202 189.696,34.796 185.737,37.978 C183.838,39.536 182.076,41.292 180.45,43.246 C178.819,45.199 177.489,47.454 176.459,50.006 C175.424,52.559 174.907,54.885 174.907,56.989 C174.907,57.265 174.943,57.511 174.962,57.771 C174.115,57.916 173.103,57.991 171.916,57.991 C166.571,57.991 157.668,56.35 145.2,53.067 C146.758,51.053 149.34,47.309 152.963,41.843 C154.735,39.145 156.108,37.09 157.082,35.681 C161.262,29.435 165.055,24.612 168.459,21.21 C169.862,19.776 171.176,18.604 172.391,17.694 C173.606,16.779 174.578,16.178 175.307,15.887 C176.037,15.594 176.614,15.45 177.043,15.45 C177.463,15.45 177.682,15.627 177.682,15.981 C177.682,16.333 176.971,17.201 175.561,18.586 C174.151,19.969 172.59,21.302 170.879,22.577 C169.164,23.855 167.92,24.612 167.145,24.856 C167.094,24.586 166.959,24.455 166.739,24.455 C166.524,24.455 166.313,24.606 166.102,24.907 C165.895,25.216 165.793,25.748 165.793,26.512 C165.793,27.278 166.147,28.076 166.852,28.901 C167.555,29.726 168.395,30.14 169.364,30.14 C170.336,30.14 171.666,29.623 173.358,28.589 C175.049,27.558 176.762,26.301 178.5,24.819 C180.237,23.337 181.766,21.637 183.09,19.716 C184.416,17.796 185.075,16.112 185.075,14.665 C185.075,13.222 184.616,11.971 183.692,10.912 C182.77,9.856 181.26,9.328 179.172,9.328 C174.483,9.328 169.742,11.467 164.957,15.741 C162.598,17.831 160.338,20.172 158.178,22.759 C156.012,25.349 154.082,27.882 152.381,30.36 C150.678,32.837 148.366,36.367 145.434,40.946 C142.506,45.531 139.987,49 137.871,51.355 C133.909,50.506 130.785,50.08 128.502,50.08 C126.219,50.08 124.26,50.236 122.635,50.553 C117.457,51.552 114.871,53.751 114.871,57.149 C114.871,59.366 115.33,60.908 116.252,61.78 C117.883,63.386 120.592,64.188 124.383,64.188 C130.653,64.188 136.049,62.172 140.569,58.137 C141.539,58.404 143.573,58.987 146.676,59.884 C149.772,60.787 152.11,61.434 153.694,61.837 C155.27,62.237 157.354,62.648 159.942,63.057 C162.532,63.469 165.256,63.679 168.108,63.679 C170.965,63.679 172.989,63.326 174.18,62.621 C174.539,62.406 175.083,61.78 175.788,60.786 C176.018,61.194 176.28,61.575 176.598,61.909 C177.735,63.087 179.231,63.679 181.104,63.679 C182.975,63.679 185.061,63.05 187.356,61.801 C189.651,60.551 191.789,58.943 193.77,56.989 C195.75,55.033 197.569,52.943 199.221,50.716 C200.873,48.496 202.174,46.307 203.119,44.156 L203.119,44.156 Z" id="Fill-1" fill="#152B51"></path>
            <path d="M250.545,41.095 C250.715,41.352 251.071,41.477 251.604,41.477 C253.254,41.477 254.731,40.872 256.032,39.654 C257.334,38.441 257.981,37.03 257.981,35.429 C257.981,34.722 257.571,34.174 256.746,33.786 C255.916,33.398 255.104,33.202 254.301,33.202 C250.948,33.202 247.133,34.356 242.856,36.666 C240.936,37.688 239.311,38.993 237.991,40.586 C236.664,42.176 236.004,43.682 236.004,45.106 C236.004,46.525 236.135,47.559 236.403,48.201 C236.668,48.848 237.266,49.376 238.186,49.788 C235.537,50.774 233.672,52.034 232.535,53.55 C232.098,53.969 231.621,54.433 231.084,54.966 C230.131,55.889 229.071,56.737 227.893,57.518 C226.711,58.294 225.733,58.684 224.957,58.684 C223.496,58.684 222.768,58.148 222.768,57.079 C222.768,56.519 222.94,55.815 223.282,54.966 C223.475,54.504 223.66,54.078 223.842,53.691 C224.028,53.301 224.27,52.841 224.576,52.303 C224.879,51.771 225.135,51.319 225.34,50.958 C225.545,50.589 225.821,50.134 226.157,49.587 C226.5,49.041 226.742,48.659 226.889,48.442 C227.034,48.222 227.256,47.874 227.563,47.401 C227.869,46.926 228.057,46.635 228.127,46.525 C228.201,46.417 228.662,45.743 229.514,44.503 C230.364,43.263 231.051,42.235 231.575,41.423 C232.096,40.609 232.612,39.685 233.121,38.654 C233.633,37.621 233.887,36.734 233.887,35.993 C233.887,35.251 233.553,34.574 232.887,33.97 C232.217,33.36 231.321,33.057 230.186,33.057 C229.055,33.057 227.787,33.36 226.379,33.97 C223.485,35.207 219.936,38.162 215.735,42.826 L217.264,40.53 C219.381,37.37 220.438,35.221 220.438,34.078 C220.438,33.346 220.145,32.984 219.561,32.984 C216.961,32.984 215.114,33.678 214.02,35.063 C213.438,35.792 212.684,36.955 211.762,38.562 C211.325,39.339 209.987,41.598 207.75,45.343 C205.514,49.086 203.856,51.898 202.776,53.779 C201.694,55.665 200.969,56.897 200.608,57.481 C200.241,58.065 199.983,58.497 199.826,58.774 C199.664,59.052 199.498,59.407 199.332,59.83 C199.162,60.258 199.076,60.615 199.076,60.908 C199.076,61.198 199.174,61.418 199.366,61.561 C199.563,61.71 200.088,61.945 200.953,62.271 C201.819,62.602 202.502,62.768 203.012,62.768 C203.522,62.768 204.178,62.244 204.981,61.198 C207.846,57.381 210.317,54.334 212.383,52.05 C214.446,49.765 217.065,47.079 220.235,43.994 C223.407,40.907 225.393,39.326 226.196,39.256 L226.27,39.326 C226.196,39.788 225.528,40.961 224.266,42.845 C223.002,44.728 221.938,46.38 221.075,47.799 C220.213,49.226 219.367,50.929 218.541,52.923 C217.715,54.917 217.303,56.696 217.303,58.264 C217.303,59.83 217.934,61.163 219.196,62.255 C220.463,63.347 221.737,63.909 223.026,63.931 C224.313,63.959 225.491,63.786 226.563,63.422 C227.915,62.936 229.682,61.811 231.843,60.07 C232.489,61.325 233.64,62.336 235.311,63.095 C236.789,63.773 238.77,64.113 241.252,64.113 C245.891,64.113 250.811,62.003 256.016,57.774 C256.815,57.116 257.303,56.561 257.475,56.112 C257.639,55.665 257.727,54.734 257.727,53.325 C257.727,51.916 257.412,51.212 256.782,51.212 C256.584,51.212 256.301,51.342 255.924,51.61 C255.543,51.879 254.649,52.589 253.227,53.742 C251.805,54.9 250.207,56.032 248.432,57.149 C246.34,58.465 244.264,59.121 242.2,59.121 C238.967,59.121 237.354,58.172 237.354,56.277 C237.354,55.207 239.914,53.241 245.041,50.371 C245.307,50.23 245.84,50.016 246.647,49.736 C247.45,49.456 248.164,49.049 248.797,48.513 C249.428,47.979 249.744,47.55 249.744,47.219 C249.744,46.892 249.561,46.443 249.198,45.871 C248.834,45.299 248.496,44.928 248.176,44.759 C248.03,44.709 247.723,44.685 247.246,44.685 C246.772,44.685 245.942,44.886 244.75,45.287 C243.563,45.685 242.678,45.889 242.106,45.889 C241.535,45.889 241.252,45.791 241.252,45.598 C241.252,45.012 242.026,44.127 243.584,42.934 C245.139,41.745 246.453,40.847 247.522,40.241 C248.59,39.629 249.561,39.181 250.44,38.89 C250.342,39.279 250.293,39.679 250.293,40.092 C250.293,40.507 250.373,40.841 250.545,41.095" id="Fill-2" fill="#152B51"></path>
            <path d="M301.473,19.315 C301.617,19.509 301.744,19.608 301.856,19.608 C301.961,19.608 302.09,19.557 302.237,19.461 C302.381,19.363 303.282,19.28 304.934,19.206 C309.721,18.987 312.647,18.427 313.719,17.527 C313.817,17.455 313.965,17.349 314.174,17.201 C314.381,17.054 314.551,16.91 314.684,16.764 C314.821,16.617 314.991,16.319 315.215,15.869 C315.43,15.421 315.541,14.577 315.541,13.335 C315.541,12.099 313.94,11.099 310.733,10.347 C309.053,9.959 307.121,9.763 304.934,9.763 C299.225,9.763 293.028,11.111 286.344,13.81 C283.11,15.123 280.127,16.617 277.395,18.296 C274.662,19.969 272.444,21.89 270.742,24.054 C269.039,26.216 268.19,28.482 268.19,30.852 C268.19,33.22 269.268,35.232 271.418,36.884 C273.567,38.54 276.953,39.903 281.586,40.984 C286.213,42.067 289.746,43.058 292.176,43.957 C294.604,44.855 295.821,45.827 295.821,46.87 C295.821,47.699 295.133,48.67 293.762,49.788 C292.389,50.907 290.649,51.976 288.549,52.995 C286.45,54.016 283.971,54.88 281.131,55.58 C278.285,56.289 275.678,56.641 273.311,56.641 C270.942,56.641 268.766,56.323 266.785,55.678 C264.805,55.033 263.815,54.356 263.815,53.654 L264.287,52.667 C264.287,52.378 264.069,52.23 263.633,52.23 C263.194,52.23 262.455,52.559 261.409,53.214 C260.873,53.557 260.418,54.055 260.043,54.71 C259.666,55.366 259.477,56.102 259.477,56.916 C259.477,57.731 259.682,58.512 260.098,59.265 C261.653,62.255 265.246,63.75 270.887,63.75 C278.616,63.75 285.274,62.499 290.864,59.996 C293.416,58.878 295.633,57.603 297.514,56.169 C299.397,54.734 300.805,53.252 301.744,51.724 C302.678,50.189 303.145,48.549 303.145,46.801 C303.145,45.049 302.407,43.325 300.926,41.623 C300.291,40.919 299.45,40.227 298.389,39.546 C297.332,38.867 296.004,38.147 294.401,37.394 C292.795,36.642 289.584,35.648 284.774,34.405 C280.131,33.217 277.301,32.071 276.285,30.979 C275.916,30.592 275.733,30.101 275.733,29.504 C275.733,28.906 276.561,27.887 278.213,26.441 C279.866,24.995 281.93,23.526 284.409,22.029 C286.889,20.533 289.813,19.191 293.18,18.003 C296.543,16.811 299.707,16.131 302.672,15.959 C301.725,17.129 301.254,17.93 301.254,18.367 C301.254,18.805 301.325,19.122 301.473,19.315" id="Fill-3" fill="#152B51"></path>
            <path d="M338.871,47.967 C337.85,49.232 335.785,51.205 332.676,53.891 C329.565,56.575 327.668,57.919 326.987,57.919 C326.498,57.919 326.26,57.493 326.26,56.641 C326.26,55.795 326.922,54.212 328.246,51.905 C329.569,49.595 331.022,47.613 332.6,45.963 C337.051,41.343 341.352,39.035 345.504,39.035 C342.201,43.579 339.989,46.556 338.871,47.967 Z M381.979,33.949 C381.33,33.355 380.514,33.057 379.514,33.057 C375.483,33.057 370.596,36.314 364.864,42.826 L366.391,40.53 C368.508,37.37 369.563,35.221 369.563,34.078 C369.563,33.346 369.272,32.984 368.688,32.984 C366.09,32.984 364.241,33.678 363.149,35.063 C362.567,35.792 361.813,36.955 360.889,38.562 C360.45,39.339 359.114,41.598 356.877,45.343 C354.645,49.086 352.996,51.879 351.942,53.726 C351.637,54.258 351.361,54.735 351.101,55.182 C351.071,55.214 351.042,55.246 351.012,55.277 C350.233,56.066 349.346,56.804 348.348,57.501 C347.352,58.19 346.489,58.536 345.764,58.536 C345.032,58.536 344.668,57.869 344.668,56.534 C344.668,56.094 344.701,55.753 344.778,55.512 C345.143,53.545 345.951,51.168 347.203,48.387 C348.45,45.604 349.594,43.319 350.627,41.532 C351.659,39.746 352.336,38.696 352.649,38.38 C352.969,38.064 353.125,37.566 353.125,36.884 C353.125,35.62 352.2,34.99 350.352,34.99 C349.553,34.99 348.953,35.105 348.553,35.335 C348.149,35.568 347.655,36.12 347.073,36.993 C346.856,36.339 346.332,35.792 345.504,35.354 C344.68,34.918 343.61,34.7 342.297,34.7 C338.895,34.7 335.176,36.278 331.143,39.437 C329.223,40.944 327.461,42.612 325.858,44.448 C324.252,46.284 322.963,48.313 321.975,50.534 C321.4,51.833 321.014,53.126 320.776,54.415 C320.612,54.561 320.456,54.698 320.282,54.854 C319.262,55.753 318.143,56.588 316.926,57.354 C315.713,58.12 314.602,58.502 313.61,58.502 C312.612,58.502 312.114,58.026 312.114,57.079 C312.114,56.617 312.162,56.024 312.26,55.294 C312.479,53.691 314.358,49.699 317.897,43.319 C321.428,36.941 324.18,32.24 326.149,29.229 C326.735,29.206 329.844,28.915 335.483,28.352 C336.186,28.282 336.85,28.071 337.469,27.716 C338.086,27.364 338.395,26.935 338.395,26.424 C338.395,25.911 338.242,25.531 337.924,25.275 C337.608,25.017 337.262,24.64 336.885,24.145 C336.506,23.647 336.174,23.343 335.879,23.231 C335.59,23.125 335.051,23.067 334.26,23.067 C333.469,23.067 332.129,23.145 330.233,23.288 C330.282,23.191 330.653,22.601 331.346,21.518 C332.037,20.438 332.637,19.471 333.149,18.623 C333.659,17.771 333.912,17.25 333.912,17.054 C333.912,16.86 333.83,16.652 333.659,16.434 C333.489,16.215 333.293,16.106 333.075,16.106 L331.576,15.741 L329.867,15.959 C329.502,15.959 329.26,16.003 329.137,16.092 C329.02,16.173 328.573,16.652 327.807,17.527 C327.041,18.404 325.639,20.371 323.6,23.435 L320.317,23.581 C319.975,23.604 319.483,23.629 318.838,23.651 C318.198,23.676 317.614,23.702 317.09,23.724 C316.571,23.749 316.028,23.778 315.469,23.818 C314.909,23.855 314.078,24.201 312.973,24.856 C311.866,25.511 311.227,26.107 311.061,26.639 C310.985,26.859 310.776,27.166 310.424,27.552 C310.069,27.942 309.895,28.346 309.895,28.755 C309.895,29.169 310.221,29.514 310.877,29.795 C311.532,30.077 312.211,30.214 312.918,30.214 L313.244,30.214 C313.707,30.214 315.348,30.055 318.164,29.738 L319.553,29.558 C316.926,33.69 314.299,38.111 311.676,42.826 C310.073,45.717 308.742,48.444 307.69,51.01 C306.629,53.573 306.094,55.753 306.081728,57.55 C306.069,59.351 306.522,60.781 307.43,61.837 C308.342,62.894 309.77,63.605 311.715,63.969 C312.032,64.043 312.373,64.077 312.735,64.077 C314.412,64.077 316.09,63.544 317.766,62.476 C318.717,61.868 319.809,61.073 321.01,60.13 C321.344,60.98 321.842,61.714 322.504,62.33 C323.549,63.326 324.899,63.823 326.549,63.823 C328.201,63.823 330.334,62.914 332.946,61.088 C335.559,59.265 337.871,57.045 339.893,54.42 C339.405,55.512 339.164,56.781 339.164,58.227 C339.164,59.671 339.623,60.994 340.545,62.183 C341.471,63.375 342.91,63.969 344.867,63.969 C346.392,63.969 348.051,63.372 349.84,62.192 C349.91,62.218 349.969,62.242 350.045,62.271 C350.909,62.602 351.6,62.768 352.121,62.768 C352.641,62.768 353.284,62.244 354.035,61.198 C356.635,57.699 359.049,54.727 361.27,52.284 C363.496,49.844 366.192,47.079 369.362,43.994 C372.534,40.907 374.524,39.326 375.323,39.256 L375.399,39.326 C373.598,41.44 372.701,43.336 372.701,45.012 C372.701,45.763 372.912,46.424 373.34,46.981 C373.758,47.542 374.358,47.818 375.123,47.818 C375.891,47.818 376.576,47.431 377.18,46.654 C378.325,45.124 379.573,43.246 380.918,41.025 C382.27,38.799 382.942,37.215 382.942,36.264 C382.942,35.316 382.621,34.547 381.979,33.949 L381.979,33.949 Z" id="Fill-4" fill="#152B51"></path>
            <path d="M152.559,86.539 C153.817,86.539 154.848,86.041 155.649,85.043 L157.295,86.737 C155.989,88.207 154.451,88.943 152.676,88.943 C150.907,88.943 149.448,88.381 148.305,87.262 C147.159,86.144 146.584,84.733 146.584,83.028 C146.584,81.323 147.166,79.898 148.338,78.759 C149.506,77.616 150.932,77.045 152.621,77.045 C154.51,77.045 156.086,77.767 157.362,79.202 L155.76,81.011 C154.95,80.005 153.94,79.499 152.737,79.499 C151.772,79.499 150.95,79.816 150.264,80.444 C149.575,81.075 149.235,81.924 149.235,82.994 C149.235,84.064 149.555,84.922 150.201,85.568 C150.852,86.214 151.633,86.539 152.559,86.539" id="Fill-5" fill="#A62C2D"></path>
            <path d="M172.953,82.493 C173.27,82.211 173.432,81.756 173.432,81.135 C173.432,80.516 173.264,80.091 172.938,79.86 C172.608,79.631 172.034,79.514 171.211,79.514 L169.284,79.514 L169.284,82.92 L171.16,82.92 C172.037,82.92 172.635,82.777 172.953,82.493 Z M176.047,81.128 C176.047,82.966 175.319,84.158 173.86,84.696 L176.768,88.809 L173.61,88.809 L171.063,85.141 L169.284,85.141 L169.284,88.809 L166.719,88.809 L166.719,77.313 L171.078,77.313 C172.866,77.313 174.141,77.614 174.905,78.216 C175.664,78.818 176.047,79.788 176.047,81.128 L176.047,81.128 Z" id="Fill-6" fill="#A62C2D"></path>
            <polyline id="Fill-7" fill="#A62C2D" points="194.369 77.313 194.369 79.596 188.647 79.596 188.647 81.965 193.793 81.965 193.793 84.154 188.647 84.154 188.647 86.539 194.551 86.539 194.551 88.809 186.08 88.809 186.08 77.313 194.369 77.313"></polyline>
            <path d="M211.139,85.649 C211.77,85.057 212.088,84.198 212.088,83.068 C212.088,81.938 211.77,81.07 211.139,80.464 C210.51,79.852 209.543,79.547 208.237,79.547 L206.805,79.547 L206.805,86.539 L208.436,86.539 C209.608,86.539 210.51,86.243 211.139,85.649 Z M213.024,78.815 C214.117,79.819 214.668,81.213 214.668,83.003 C214.668,84.789 214.135,86.204 213.067,87.247 C211.996,88.286 210.366,88.809 208.17,88.809 L204.237,88.809 L204.237,77.313 L208.301,77.313 C210.354,77.313 211.93,77.812 213.024,78.815 L213.024,78.815 Z" id="Fill-8" fill="#A62C2D"></path>
            <polygon id="Fill-9" fill="#A62C2D" points="224.291 88.809 226.858 88.809 226.858 77.313 224.291 77.313"></polygon>
            <polyline id="Fill-10" fill="#A62C2D" points="241.957 79.531 241.957 88.809 239.393 88.809 239.393 79.531 236.135 79.531 236.135 77.313 245.215 77.313 245.215 79.531 241.957 79.531"></polyline>
            <path d="M269.28,85.839 C269.707,86.373 270.284,86.637 271.008,86.637 C271.729,86.637 272.303,86.373 272.725,85.839 C273.147,85.309 273.362,84.584 273.362,83.66 L273.362,77.313 L275.924,77.313 L275.924,83.743 C275.924,85.409 275.469,86.69 274.545,87.584 C273.623,88.479 272.444,88.926 271.008,88.926 C269.569,88.926 268.389,88.474 267.461,87.576 C266.532,86.677 266.075,85.4 266.075,83.743 L266.075,77.313 L268.637,77.313 L268.637,83.66 C268.637,84.584 268.85,85.309 269.28,85.839" id="Fill-11" fill="#A62C2D"></path>
            <polyline id="Fill-12" fill="#A62C2D" points="294.037 77.313 296.604 77.313 296.604 88.809 294.037 88.809 288.557 81.606 288.557 88.809 285.991 88.809 285.991 77.313 288.395 77.313 294.037 84.712 294.037 77.313"></polyline>
            <polygon id="Fill-13" fill="#A62C2D" points="306.832 88.809 309.395 88.809 309.395 77.313 306.832 77.313"></polygon>
            <path d="M328.428,82.994 C328.428,81.969 328.1,81.097 327.444,80.37 C326.785,79.647 325.975,79.284 325.016,79.284 C324.059,79.284 323.25,79.647 322.59,80.37 C321.934,81.097 321.606,81.969 321.606,82.994 C321.606,84.019 321.934,84.891 322.59,85.609 C323.25,86.33 324.059,86.685 325.016,86.685 C325.975,86.685 326.785,86.33 327.444,85.609 C328.1,84.891 328.428,84.019 328.428,82.994 Z M329.301,87.222 C328.141,88.356 326.711,88.926 325.008,88.926 C323.307,88.926 321.879,88.356 320.717,87.222 C319.553,86.089 318.973,84.673 318.973,82.985 C318.973,81.296 319.553,79.887 320.717,78.75 C321.879,77.614 323.307,77.045 325.008,77.045 C326.711,77.045 328.141,77.614 329.301,78.75 C330.463,79.887 331.051,81.296 331.051,82.985 C331.051,84.673 330.463,86.089 329.301,87.222 L329.301,87.222 Z" id="Fill-14" fill="#A62C2D"></path>
            <polyline id="Fill-15" fill="#A62C2D" points="348.662 77.313 351.227 77.313 351.227 88.809 348.662 88.809 343.186 81.606 343.186 88.809 340.617 88.809 340.617 77.313 343.022 77.313 348.662 84.712 348.662 77.313"></polyline>
            <path d="M49.512,4.932 C24.932,4.932 4.938,24.928 4.938,49.506 C4.938,74.083 24.932,94.075 49.512,94.075 C74.086,94.075 94.08,74.083 94.08,49.506 C94.08,24.928 74.086,4.932 49.512,4.932 Z M49.512,99.012 C22.207,99.012 0,76.803 0,49.506 C0,22.207 22.207,0 49.512,0 C76.805,0 99.018,22.207 99.018,49.506 C99.018,76.803 76.805,99.012 49.512,99.012 L49.512,99.012 Z" id="Fill-16" fill="#A62C2D"></path>
            <path d="M49.227,43.222 C49.227,43.222 36.799,31.009 45.104,22.42 C50.494,16.839 51.043,16.474 51.043,16.474 C51.043,16.474 51.043,20.766 53.686,24.565 C57.768,30.431 54.676,34.968 54.676,34.968 C53.028,29.848 48.729,28.755 48.733,24.894 C48.733,24.894 45.492,30.294 50.381,34.968 C52.239,36.742 51.871,40.579 49.227,43.222" id="Fill-17" fill="#152B51"></path>
            <polyline id="Fill-18" fill="#152B51" points="80.471 44.265 18.815 44.25 37.864 58.093 30.58 80.491 49.643 66.656 68.688 80.503 61.418 58.101 80.471 44.265"></polyline>
        </g>
    </g>
</svg>